<svg width="800" height="600" xmlns="http://www.w3.org/2000/svg">

 <g>
  <title>Layer 1</title>
  <path d="m434,153c-73,-2 -115.85764,-3.16194 -175,16c-27.24149,8.82616 -45.77299,22.28835 -54,32c-5.56033,6.56375 -13.578,29.87314 -14,45c-0.36359,13.03333 8.54311,35.54004 25,49c31.20364,25.52121 77.63852,35.41843 146,26c50.22076,-6.9191 103.25098,-31.97794 121,-54c10.44406,-12.95845 14.48624,-34.51549 7,-44c-28.25659,-35.79897 -95.39716,-59.78331 -176,-58c-47.66434,1.05455 -94.03394,20.981 -125,50c-12.99149,12.17462 -14.82645,23.4185 -13,26c6.58534,9.30771 96.85916,52.25409 168,62c83.31699,11.41397 127.66821,-0.01819 154,-10c15.47815,-5.86743 16.74817,-7.10721 16,-5c-3.08466,8.6882 -11.22076,79.15887 -35,134c-14.60583,33.68484 -43.66257,66.44107 -54,74c-5.82092,4.25638 -8.87604,5.34314 -14,7c-7.84622,2.53711 -13,4 -20,6l-3,1l-3,2l-1,1" id="svg_1" stroke="#000" fill="none"/>
  <rect id="svg_2" height="125" width="322" y="67" x="191" stroke="#000" fill="#fff"/>
 </g>
</svg>